<svg width="29" height="29" viewBox="0 0 29 29" fill="none" xmlns="http://www.w3.org/2000/svg">
<rect width="24" height="24" rx="12" fill="#000022" fill-opacity="0.06"/>
<path fill-rule="evenodd" clip-rule="evenodd" d="M7.1226 8.39284C6.77113 8.04137 6.77113 7.47152 7.1226 7.12005C7.47407 6.76858 8.04392 6.76858 8.39539 7.12005L12.0017 10.7263L15.6065 7.12145C15.958 6.76998 16.5278 6.76998 16.8793 7.12145C17.2308 7.47292 17.2308 8.04277 16.8793 8.39424L13.2745 11.9991L16.8807 15.6053C17.2322 15.9568 17.2322 16.5266 16.8807 16.8781C16.5292 17.2296 15.9594 17.2296 15.6079 16.8781L12.0017 13.2719L8.39403 16.8795C8.04256 17.231 7.47271 17.231 7.12124 16.8795C6.76977 16.5281 6.76977 15.9582 7.12124 15.6067L10.7289 11.9991L7.1226 8.39284Z" fill="#000022" fill-opacity="0.56"/>
</svg>
