<svg width="130" height="49" viewBox="0 0 130 49" fill="none" xmlns="http://www.w3.org/2000/svg">
<mask id="path-1-inside-1_856_76208" fill="white">
<path d="M0 12C0 5.37258 5.37258 0 12 0H118C124.627 0 130 5.37258 130 12V28C130 34.6274 124.627 40 118 40H78.0449C73.6954 40 69.6864 42.3536 67.5665 46.1516L66.6772 47.745C65.9293 49.0849 64.0134 49.1182 63.2194 47.8051L62.0015 45.791C59.8281 42.1964 55.9333 40 51.7327 40H12C5.37258 40 0 34.6274 0 28V12Z"/>
</mask>
<path d="M0 12C0 5.37258 5.37258 0 12 0H118C124.627 0 130 5.37258 130 12V28C130 34.6274 124.627 40 118 40H78.0449C73.6954 40 69.6864 42.3536 67.5665 46.1516L66.6772 47.745C65.9293 49.0849 64.0134 49.1182 63.2194 47.8051L62.0015 45.791C59.8281 42.1964 55.9333 40 51.7327 40H12C5.37258 40 0 34.6274 0 28V12Z" fill="#FDFDFD"/>
<path d="M66.6772 47.745L65.804 47.2576L66.6772 47.745ZM63.2194 47.8051L64.0751 47.2877L63.2194 47.8051ZM62.0015 45.791L62.8572 45.2735L62.0015 45.791ZM67.5665 46.1516L66.6933 45.6642L67.5665 46.1516ZM12 1H118V-1H12V1ZM129 12V28H131V12H129ZM1 28V12H-1V28H1ZM118 39H78.0449V41H118V39ZM51.7327 39H12V41H51.7327V39ZM66.6933 45.6642L65.804 47.2576L67.5504 48.2323L68.4397 46.639L66.6933 45.6642ZM64.0751 47.2877L62.8572 45.2735L61.1458 46.3084L62.3636 48.3225L64.0751 47.2877ZM65.804 47.2576C65.4301 47.9276 64.4721 47.9442 64.0751 47.2877L62.3636 48.3225C63.5546 50.2922 66.4286 50.2423 67.5504 48.2323L65.804 47.2576ZM51.7327 41C55.5832 41 59.1535 43.0134 61.1458 46.3084L62.8572 45.2735C60.5027 41.3794 56.2833 39 51.7327 39V41ZM78.0449 39C73.3329 39 68.9898 41.5497 66.6933 45.6642L68.4397 46.639C70.3829 43.1575 74.0578 41 78.0449 41V39ZM-1 28C-1 35.1797 4.8203 41 12 41V39C5.92487 39 1 34.0751 1 28H-1ZM129 28C129 34.0751 124.075 39 118 39V41C125.18 41 131 35.1797 131 28H129ZM118 1C124.075 1 129 5.92487 129 12H131C131 4.8203 125.18 -1 118 -1V1ZM12 -1C4.8203 -1 -1 4.8203 -1 12H1C1 5.92487 5.92487 1 12 1V-1Z" fill="#4CAD5F" mask="url(#path-1-inside-1_856_76208)"/>
</svg>
