<svg width="28" height="28" viewBox="0 0 28 28" fill="none" xmlns="http://www.w3.org/2000/svg">
<path d="M24.332 17.0658C23.744 17.0658 23.324 17.4858 23.324 18.0738V22.5818C23.324 23.0438 22.932 23.3938 22.582 23.3938H5.404C4.984 23.3938 4.662 23.0298 4.662 22.5818V18.0598C4.662 17.4718 4.242 17.0518 3.654 17.0518C3.066 17.0518 2.646 17.4718 2.646 18.0598V22.5678C2.646 24.0938 3.906 25.3958 5.39 25.3958H22.498C23.996 25.3958 25.242 24.1638 25.326 22.5678V18.0598C25.34 17.4718 24.92 17.0658 24.332 17.0658Z" fill="#999999"/>
<path d="M13.258 20.3565C13.468 20.5665 13.678 20.6505 13.958 20.6505C14.238 20.6505 14.462 20.5525 14.658 20.3565L19.81 15.2045C20.216 14.7985 20.216 14.1965 19.81 13.7905C19.404 13.3845 18.802 13.3845 18.396 13.7905L14.952 17.2345V3.65448C14.952 3.06648 14.532 2.64648 13.944 2.64648C13.356 2.64648 12.936 3.06648 12.936 3.65448V17.2345L9.51999 13.7905C9.32399 13.5945 9.07199 13.4965 8.81999 13.4965C8.55399 13.4965 8.30199 13.6085 8.11999 13.7905C7.92399 13.9865 7.82599 14.2385 7.82599 14.4905C7.82599 14.7425 7.93799 15.0085 8.11999 15.1905L13.258 20.3565Z" fill="#999999"/>
</svg>
