<svg width="14" height="15" viewBox="0 0 14 15" fill="none" xmlns="http://www.w3.org/2000/svg">
<path d="M0.875004 2.15961L4.375 1.46399V12.7445L0.875004 13.4392V2.15961ZM13.8399 0.598611C13.7896 0.557941 13.7311 0.528791 13.6683 0.513219C13.6056 0.497647 13.5402 0.496031 13.4768 0.508486L9.1875 1.36074L4.89825 0.508486C4.84165 0.497171 4.78336 0.497171 4.72675 0.508486L0.351754 1.37736C0.252974 1.3966 0.163923 1.4495 0.0997804 1.52704C0.0356381 1.60459 0.000375531 1.70198 3.62569e-06 1.80261V13.9686C-0.000231212 14.026 0.0109441 14.0829 0.03288 14.1359C0.054816 14.189 0.087075 14.2371 0.127782 14.2776C0.16849 14.318 0.216833 14.35 0.270004 14.3716C0.323174 14.3932 0.38011 14.4041 0.437504 14.4035C0.466266 14.4035 0.494966 14.4008 0.523254 14.3956L4.8125 13.5434L6.91425 13.9616L7.08575 13.1085L5.25 12.7445V1.46399L8.75 2.15961V7.18649H9.625V2.15961L13.125 1.46399V7.86549H14V0.933736C14 0.869476 13.9856 0.806038 13.9579 0.748057C13.9302 0.690077 13.8898 0.639017 13.8399 0.598611ZM8.87863 11.1511C8.87863 10.1921 9.66263 9.41249 10.6286 9.41249C11.5929 9.41249 12.3786 10.1921 12.3786 11.1502C12.3768 11.6127 12.1914 12.0556 11.8633 12.3816C11.5352 12.7076 11.0911 12.89 10.6286 12.8889C9.66263 12.8889 8.87863 12.1092 8.87863 11.1502M13.2536 11.1502C13.2536 9.71349 12.075 8.54361 10.6286 8.54361C9.1805 8.54361 8.00363 9.71349 8.00363 11.1511C8.00363 12.5879 9.1805 13.7577 10.6286 13.7577C11.1939 13.7577 11.7154 13.5749 12.1441 13.2712L13.3814 14.4997L14 13.8846L12.7628 12.657C13.069 12.2309 13.2528 11.7129 13.2528 11.1502" fill="black" fill-opacity="0.65"/>
</svg>
