<svg width="119" height="119" viewBox="0 0 119 119" fill="none" xmlns="http://www.w3.org/2000/svg">
<path d="M70.4386 7.973C60.268 5.83003 49.6909 6.74085 40.0364 10.591C31.1813 14.1333 23.4585 20.0213 17.6978 27.6223C23.5082 23.8538 30.2883 21.8545 37.2138 21.8674C44.5727 21.8674 51.4081 24.0808 57.101 27.8698H57.1962C64.4791 32.1412 72.7722 34.3862 81.2152 34.372C88.6564 34.3838 95.9959 32.6439 102.64 29.293C95.0055 18.3515 83.4919 10.7269 70.4386 7.96824" fill="#97F7E0"/>
<path d="M70.4386 18.4448C60.268 16.3018 49.6909 17.2127 40.0364 21.0628C31.1813 24.6051 23.4585 30.4931 17.6978 38.0941C23.5082 34.3256 30.2883 32.3263 37.2138 32.3392C44.5727 32.3392 51.4081 34.5526 57.101 38.3416H57.1962C64.4791 42.613 72.7722 44.858 81.2152 44.8438C88.6564 44.8556 95.9959 43.1157 102.64 39.7648C95.0055 28.8233 83.4919 21.1987 70.4386 18.44" fill="#5FA8FF"/>
<path d="M70.4386 110.432C60.268 112.575 49.6909 111.664 40.0364 107.814C31.1807 104.27 23.4579 98.3806 17.6978 90.7778C23.5077 94.548 30.2878 96.5489 37.2138 96.5374C44.2911 96.5459 51.2119 94.4554 57.101 90.5303H57.1962C64.4791 86.2589 72.7722 84.0139 81.2152 84.0281C88.6568 84.0178 95.9963 85.7593 102.64 89.1118C95.0046 100.052 83.4912 107.674 70.4386 110.432Z" fill="#97F7E0"/>
<path d="M70.4386 99.9601C60.268 102.103 49.6909 101.192 40.0364 97.3421C31.1807 93.7984 23.4579 87.9088 17.6978 80.306C23.5077 84.0762 30.2878 86.0771 37.2138 86.0656C44.2911 86.0741 51.2119 83.9836 57.101 80.0585H57.1962C64.4791 75.7871 72.7722 73.5421 81.2152 73.5563C88.6568 73.546 95.9963 75.2875 102.64 78.64C95.0046 89.5797 83.4912 97.2026 70.4386 99.9601Z" fill="#5FA8FF"/>
<path d="M111.698 58.7385C111.804 58.869 111.862 59.0321 111.862 59.2002C111.862 59.3683 111.804 59.5313 111.698 59.6619C107.934 64.2883 103.185 68.0163 97.7968 70.5741C92.4087 73.1318 86.5178 74.4547 80.5535 74.4465C72.6428 74.4592 64.9062 72.1233 58.3243 67.7348C58.1685 67.6577 58.0189 67.5686 57.8769 67.4683C54.5202 65.119 50.7848 63.364 46.8337 62.2799C43.7251 61.4223 40.5146 60.99 37.2899 60.9947C31.9355 60.9876 26.6474 62.1797 21.814 64.4836C16.9806 66.7875 12.7245 70.1446 9.3582 74.3084C7.8828 69.4082 7.13543 64.3177 7.14004 59.2002C7.14004 53.9499 7.91592 48.871 9.3582 44.0967C12.725 48.2597 16.9813 51.6159 21.8147 53.9189C26.6481 56.2219 31.9359 57.4133 37.2899 57.4057C44.5858 57.4174 51.711 55.1984 57.7103 51.0463C58.1339 50.7607 58.51 50.5179 58.867 50.2942C59.005 50.2085 59.1383 50.1276 59.2716 50.0372C65.654 46.0521 73.0292 43.944 80.5535 43.9539C86.5173 43.946 92.4076 45.2687 97.7955 47.8255C103.183 50.3823 107.933 54.1089 111.698 58.7337" fill="#2C6BFF"/>
</svg>
