<svg width="64" height="64" viewBox="0 0 64 64" fill="none" xmlns="http://www.w3.org/2000/svg">
<path d="M37.5674 4.25238C32.1431 3.10946 26.502 3.59523 21.3529 5.64865C16.6302 7.5379 12.5114 10.6781 9.43896 14.732C12.5379 12.7221 16.1539 11.6559 19.8475 11.6627C23.7723 11.6627 27.4178 12.8432 30.4541 14.864H30.5048C34.389 17.1421 38.812 18.3394 43.3149 18.3318C47.2836 18.3381 51.198 17.4102 54.7415 15.6231C50.6698 9.78761 44.5292 5.72112 37.5674 4.24984" fill="#970005" fill-opacity="0.35"/>
<path d="M37.5674 9.83734C32.1431 8.69443 26.502 9.18019 21.3529 11.2336C16.6302 13.1229 12.5114 16.2631 9.43896 20.317C12.5379 18.3071 16.1539 17.2408 19.8475 17.2477C23.7723 17.2477 27.4178 18.4282 30.4541 20.449H30.5048C34.389 22.727 38.812 23.9244 43.3149 23.9168C47.2836 23.9231 51.198 22.9952 54.7415 21.208C50.6698 15.3726 44.5292 11.3061 37.5674 9.8348" fill="#A8373B"/>
<path d="M37.5674 58.897C32.1431 60.0399 26.502 59.5541 21.3529 57.5007C16.6299 55.6107 12.511 52.4696 9.43896 48.4148C12.5376 50.4255 16.1537 51.4927 19.8475 51.4866C23.6221 51.4911 27.3132 50.3762 30.4541 48.2828H30.5048C34.389 46.0047 38.812 44.8074 43.3149 44.815C47.2838 44.8094 51.1982 45.7383 54.7415 47.5263C50.6693 53.3608 44.5288 57.4263 37.5674 58.897Z" fill="#970005" fill-opacity="0.35"/>
<path d="M37.5674 53.312C32.1431 54.4549 26.502 53.9691 21.3529 51.9157C16.6299 50.0258 12.511 46.8847 9.43896 42.8298C12.5376 44.8406 16.1537 45.9078 19.8475 45.9016C23.6221 45.9062 27.3132 44.7912 30.4541 42.6978H30.5048C34.389 40.4198 38.812 39.2224 43.3149 39.23C47.2838 39.2245 51.1982 40.1533 54.7415 41.9413C50.6693 47.7758 44.5288 51.8413 37.5674 53.312Z" fill="#A8373B"/>
<path d="M59.5725 31.3273C59.6289 31.3969 59.6598 31.4838 59.6598 31.5735C59.6598 31.6632 59.6289 31.7501 59.5725 31.8198C57.5649 34.2872 55.032 36.2755 52.1584 37.6396C49.2848 39.0037 46.1429 39.7093 42.962 39.7049C38.7429 39.7116 34.6168 38.4658 31.1064 36.1253C31.0233 36.0842 30.9435 36.0367 30.8678 35.9832C29.0775 34.7302 27.0853 33.7942 24.9781 33.216C23.3201 32.7586 21.6079 32.5281 19.888 32.5306C17.0323 32.5268 14.2121 33.1626 11.6342 34.3913C9.05642 35.6201 6.7865 37.4105 4.99114 39.6312C4.20426 37.0178 3.80566 34.3029 3.80812 31.5735C3.80812 28.7734 4.22192 26.0646 4.99114 23.5183C6.78675 25.7386 9.05678 27.5285 11.6346 28.7568C14.2124 29.9851 17.0326 30.6205 19.888 30.6164C23.7792 30.6227 27.5793 29.4392 30.7789 27.2248C31.0049 27.0725 31.2054 26.943 31.3958 26.8237C31.4694 26.778 31.5405 26.7348 31.6116 26.6866C35.0155 24.5612 38.949 23.4369 42.962 23.4422C46.1426 23.438 49.2842 24.1434 52.1577 25.507C55.0312 26.8707 57.5643 28.8582 59.5725 31.3247" fill="#970005"/>
</svg>
