<svg width="24" height="24" viewBox="0 0 24 24" fill="none" xmlns="http://www.w3.org/2000/svg">
<path d="M11.8 20.4L7.2 15.8L7.1 15.7L7 15.6C5.8 14.3 5 12.5 5 10.5C5 6.4 8.4 3 12.5 3C16.6 3 20 6.4 20 10.5C20 12.5 19.2 14.3 18 15.6L13.2 20.4L12.5 21.1L11.8 20.4ZM12.5 19.7L17.1 15.1C18.3 13.9 19 12.3 19 10.5C19 6.9 16.1 4 12.5 4C8.9 4 6 6.9 6 10.5C6 12.3 6.7 13.9 7.8 15L12.5 19.7ZM12.5 14C10.6 14 9 12.4 9 10.5C9 8.6 10.6 7 12.5 7C14.4 7 16 8.6 16 10.5C16 12.4 14.4 14 12.5 14ZM12.5 13C13.9 13 15 11.9 15 10.5C15 9.1 13.9 8 12.5 8C11.1 8 10 9.1 10 10.5C10 11.9 11.1 13 12.5 13Z" fill="black"/>
</svg>
