<svg width="40" height="32" viewBox="0 0 40 32" fill="none" xmlns="http://www.w3.org/2000/svg">
<rect width="40" height="32" rx="16" fill="black" fill-opacity="0.7"/>
<rect x="0.5" y="0.5" width="39" height="31" rx="15.5" stroke="white" stroke-opacity="0.12"/>
<path d="M21.4875 11.009C21.4875 10.939 21.5013 10.8696 21.5282 10.8049C21.555 10.7402 21.5943 10.6814 21.6438 10.6318C21.6933 10.5823 21.7521 10.543 21.8168 10.5162C21.8816 10.4894 21.9509 10.4756 22.021 10.4756H25.755C25.8965 10.4756 26.0322 10.5318 26.1322 10.6318C26.2322 10.7319 26.2884 10.8675 26.2884 11.009C26.2884 11.1505 26.2322 11.2862 26.1322 11.3862C26.0322 11.4863 25.8965 11.5425 25.755 11.5425H22.021C21.9509 11.5425 21.8816 11.5287 21.8168 11.5018C21.7521 11.475 21.6933 11.4357 21.6438 11.3862C21.5943 11.3367 21.555 11.2779 21.5282 11.2132C21.5013 11.1484 21.4875 11.0791 21.4875 11.009ZM21.4875 12.6093C21.4875 12.5393 21.5013 12.4699 21.5282 12.4052C21.555 12.3405 21.5943 12.2817 21.6438 12.2321C21.6933 12.1826 21.7521 12.1433 21.8168 12.1165C21.8816 12.0897 21.9509 12.0759 22.021 12.0759H25.755C25.8251 12.0759 25.8944 12.0897 25.9591 12.1165C26.0239 12.1433 26.0827 12.1826 26.1322 12.2321C26.1817 12.2817 26.221 12.3405 26.2478 12.4052C26.2746 12.4699 26.2884 12.5393 26.2884 12.6093C26.2884 12.6794 26.2746 12.7487 26.2478 12.8135C26.221 12.8782 26.1817 12.937 26.1322 12.9865C26.0827 13.036 26.0239 13.0753 25.9591 13.1021C25.8944 13.129 25.8251 13.1427 25.755 13.1427H22.021C21.9509 13.1427 21.8816 13.129 21.8168 13.1021C21.7521 13.0753 21.6933 13.036 21.6438 12.9865C21.5943 12.937 21.555 12.8782 21.5282 12.8135C21.5013 12.7487 21.4875 12.6794 21.4875 12.6093Z" fill="white"/>
<path d="M24.0441 9.29786C24.0937 9.24832 24.1525 9.20902 24.2172 9.18221C24.2819 9.1554 24.3513 9.1416 24.4213 9.1416C24.4914 9.1416 24.5608 9.1554 24.6255 9.18221C24.6902 9.20902 24.749 9.24832 24.7986 9.29786L26.1321 10.6314C26.2322 10.7315 26.2884 10.8672 26.2884 11.0087C26.2884 11.1501 26.2322 11.2858 26.1321 11.3859C26.0321 11.4859 25.8964 11.5421 25.7549 11.5421C25.6134 11.5421 25.4778 11.4859 25.3777 11.3859L24.0441 10.0523C23.9946 10.0028 23.9553 9.94394 23.9285 9.87922C23.9017 9.8145 23.8879 9.74513 23.8879 9.67507C23.8879 9.60502 23.9017 9.53565 23.9285 9.47092C23.9553 9.4062 23.9946 9.34739 24.0441 9.29786ZM21.6437 12.2317C21.6932 12.1822 21.752 12.1429 21.8167 12.1161C21.8815 12.0893 21.9508 12.0755 22.0209 12.0755C22.091 12.0755 22.1603 12.0893 22.225 12.1161C22.2898 12.1429 22.3486 12.1822 22.3981 12.2317L23.7317 13.5653C23.8317 13.6654 23.8879 13.8011 23.8879 13.9425C23.8879 14.084 23.8317 14.2197 23.7317 14.3197C23.6316 14.4198 23.496 14.476 23.3545 14.476C23.213 14.476 23.0773 14.4198 22.9773 14.3197L21.6437 12.9862C21.5941 12.9366 21.5548 12.8778 21.528 12.8131C21.5012 12.7484 21.4874 12.679 21.4874 12.609C21.4874 12.5389 21.5012 12.4695 21.528 12.4048C21.5548 12.3401 21.5941 12.2813 21.6437 12.2317Z" fill="white"/>
<path d="M26.3516 15.9995C26.3516 15.8312 26.2848 15.6697 26.1657 15.5507C26.0467 15.4316 25.8852 15.3648 25.7169 15.3648C25.5485 15.3648 25.387 15.4316 25.268 15.5507C25.1489 15.6697 25.0821 15.8312 25.0821 15.9995V16.9521L23.9984 16.1398C23.7538 15.9565 23.4514 15.8676 23.1465 15.8893C22.8417 15.911 22.5549 16.0418 22.3387 16.2579L20.9701 17.6258L18.9369 15.8837C18.7012 15.6819 18.3998 15.5734 18.0895 15.5786C17.7793 15.5838 17.4816 15.7023 17.2528 15.9119L14.9209 18.0487V11.2368C14.9209 11.0615 15.0634 10.919 15.2387 10.919H20.0015C20.1699 10.919 20.3313 10.8521 20.4504 10.7331C20.5694 10.614 20.6363 10.4526 20.6363 10.2842C20.6363 10.1158 20.5694 9.95438 20.4504 9.83534C20.3313 9.71629 20.1699 9.64941 20.0015 9.64941H15.2387C14.3624 9.64941 13.6514 10.3596 13.6514 11.2368V20.7623C13.6514 21.6387 14.3616 22.3497 15.2387 22.3497H24.7643C25.6406 22.3497 26.3516 21.6395 26.3516 20.7623V18.2415V15.9995ZM25.0821 18.5394V20.7623C25.0821 20.9376 24.9396 21.0801 24.7643 21.0801H15.2387C15.197 21.0801 15.1557 21.0719 15.1171 21.0559C15.0785 21.04 15.0435 21.0165 15.014 20.987C14.9845 20.9575 14.9611 20.9225 14.9451 20.8839C14.9292 20.8454 14.9209 20.8041 14.9209 20.7623V19.7717L18.1101 16.8485L22.1284 20.2922C22.1917 20.3464 22.2651 20.3877 22.3444 20.4136C22.4237 20.4396 22.5074 20.4496 22.5905 20.4432C22.6737 20.4368 22.7548 20.4141 22.8292 20.3763C22.9036 20.3386 22.9699 20.2865 23.0242 20.2232C23.0784 20.1598 23.1197 20.0864 23.1456 20.0071C23.1716 19.9278 23.1816 19.8442 23.1752 19.761C23.1688 19.6778 23.1461 19.5967 23.1083 19.5223C23.0706 19.4479 23.0185 19.3817 22.9552 19.3274L21.9371 18.4549L23.2364 17.1556L25.0813 18.5394H25.0821Z" fill="white"/>
</svg>
