<svg width="32" height="31" viewBox="0 0 32 31" fill="none" xmlns="http://www.w3.org/2000/svg">
<mask id="path-1-inside-1_813_65492" fill="white">
<path fill-rule="evenodd" clip-rule="evenodd" d="M3 0C1.34315 0 0 1.34315 0 3V18C0 25.1797 5.8203 31 13 31C20.1797 31 26 25.1797 26 18V3H29V0H26H3Z"/>
</mask>
<path fill-rule="evenodd" clip-rule="evenodd" d="M3 0C1.34315 0 0 1.34315 0 3V18C0 25.1797 5.8203 31 13 31C20.1797 31 26 25.1797 26 18V3H29V0H26H3Z" fill="url(#paint0_linear_813_65492)"/>
<path fill-rule="evenodd" clip-rule="evenodd" d="M3 0C1.34315 0 0 1.34315 0 3V18C0 25.1797 5.8203 31 13 31C20.1797 31 26 25.1797 26 18V3H29V0H26H3Z" fill="url(#paint1_radial_813_65492)"/>
<path d="M26 3V2.6H25.6V3H26ZM29 3V3.4H29.4V3H29ZM29 0H29.4V-0.4H29V0ZM0.4 3C0.4 1.56406 1.56406 0.4 3 0.4V-0.4C1.12223 -0.4 -0.4 1.12223 -0.4 3H0.4ZM0.4 18V3H-0.4V18H0.4ZM13 30.6C6.04121 30.6 0.4 24.9588 0.4 18H-0.4C-0.4 25.4006 5.59938 31.4 13 31.4V30.6ZM25.6 18C25.6 24.9588 19.9588 30.6 13 30.6V31.4C20.4006 31.4 26.4 25.4006 26.4 18H25.6ZM25.6 3V18H26.4V3H25.6ZM29 2.6H26V3.4H29V2.6ZM28.6 0V3H29.4V0H28.6ZM26 0.4H29V-0.4H26V0.4ZM3 0.4H26V-0.4H3V0.4Z" fill="url(#paint2_linear_813_65492)" mask="url(#path-1-inside-1_813_65492)"/>
<path d="M32 3C32 2.60603 31.9224 2.21593 31.7716 1.85195C31.6209 1.48797 31.3999 1.15726 31.1213 0.87868C30.8427 0.600104 30.512 0.379125 30.1481 0.228361C29.7841 0.0775973 29.394 -1.72208e-08 29 0C28.606 1.72208e-08 28.2159 0.0775973 27.8519 0.228361C27.488 0.379126 27.1573 0.600104 26.8787 0.87868C26.6001 1.15726 26.3791 1.48797 26.2284 1.85195C26.0776 2.21593 26 2.60603 26 3L29 3H32Z" fill="url(#paint3_linear_813_65492)"/>
<g opacity="0.5">
<path fill-rule="evenodd" clip-rule="evenodd" d="M22.4999 17.8591C22.8491 17.5466 23.6198 17.207 24.0959 17.0149C24.2542 16.951 24.4041 17.1037 24.338 17.261C24.1481 17.7134 23.8185 18.4399 23.4999 18.8591C23.0439 19.459 21.9578 19.7127 21.3787 19.8083C21.2193 19.8346 21.112 19.669 21.1976 19.5321C21.4738 19.0909 21.9975 18.3086 22.4999 17.8591ZM21.7905 20.0776C22.1839 19.8227 22.9977 19.606 23.4978 19.4897C23.664 19.451 23.7885 19.625 23.699 19.7702C23.4415 20.1879 23.0038 20.8548 22.6243 21.2199C22.0948 21.7292 20.78 22.083 20.0357 22.2499C19.8537 22.2907 19.7348 22.0853 19.8584 21.9456C20.3466 21.394 21.2243 20.4445 21.7905 20.0776ZM22.8625 22.4405C22.3068 22.4433 21.3556 22.4768 20.8625 22.6603C20.1523 22.9244 18.942 23.7673 18.2953 24.2374C18.1446 24.3469 18.2163 24.5733 18.4026 24.574C19.2238 24.577 20.757 24.5209 21.4614 24.092C21.9701 23.7823 22.6244 23.1438 22.9981 22.759C23.117 22.6366 23.0332 22.4396 22.8625 22.4405Z" fill="url(#paint4_linear_813_65492)"/>
<path fill-rule="evenodd" clip-rule="evenodd" d="M3.85415 17.8591C3.50486 17.5466 2.73422 17.207 2.25806 17.0149C2.09983 16.951 1.94991 17.1037 2.01596 17.261C2.20588 17.7134 2.53552 18.4399 2.85415 18.8591C3.31007 19.459 4.39624 19.7127 4.97535 19.8083C5.13467 19.8346 5.24202 19.669 5.15636 19.5321C4.88025 19.0909 4.35652 18.3086 3.85415 17.8591ZM4.56347 20.0776C4.17014 19.8227 3.35634 19.606 2.85624 19.4897C2.69005 19.451 2.56548 19.625 2.65501 19.7702C2.91246 20.1879 3.35022 20.8548 3.72972 21.2199C4.25919 21.7292 5.57403 22.083 6.31831 22.2499C6.50031 22.2907 6.61919 22.0853 6.49557 21.9456C6.00738 21.394 5.1297 20.4445 4.56347 20.0776ZM3.49146 22.4405C4.04718 22.4433 4.99837 22.4768 5.49152 22.6603C6.20167 22.9244 7.41203 23.7673 8.05873 24.2374C8.20944 24.3469 8.13773 24.5733 7.95142 24.574C7.13018 24.577 5.59705 24.5209 4.89256 24.092C4.38386 23.7823 3.72963 23.1438 3.35587 22.759C3.23699 22.6366 3.32084 22.4396 3.49146 22.4405Z" fill="url(#paint5_linear_813_65492)"/>
</g>
<g clip-path="url(#clip0_813_65492)">
<path d="M12.9998 8C16.6887 8 19.6783 10.9568 19.6783 14.6044C19.6746 18.4075 15.6566 22.4826 13.8558 24.6039C13.7504 24.7281 13.6192 24.8278 13.4714 24.8962C13.3236 24.9646 13.1627 25 12.9998 25C12.8369 25 12.676 24.9646 12.5282 24.8962C12.3803 24.8278 12.2492 24.7281 12.1437 24.6039C10.343 22.4826 6.32129 18.4075 6.32129 14.6056C6.32129 10.9568 9.31082 8 12.9998 8ZM12.9998 10.125C10.445 10.125 8.37584 12.2645 8.37584 14.9068C8.37584 17.5478 10.445 19.6874 12.9998 19.6874C15.5546 19.6874 17.6237 17.5478 17.6237 14.9056C17.6237 12.2645 15.5546 10.125 12.9998 10.125ZM16.0998 12.9797C16.2506 13.1458 16.3334 13.3624 16.3318 13.5867C16.3302 13.811 16.2444 14.0264 16.0913 14.1904L13.0593 17.3256L13.0374 17.3487L13.0071 17.3802C12.8541 17.5179 12.654 17.5913 12.4483 17.5855C12.2425 17.5796 12.047 17.4948 11.9021 17.3487L11.8948 17.3377L10.0127 15.3913C9.85908 15.23 9.7734 15.0159 9.7734 14.7932C9.7734 14.5706 9.85908 14.3564 10.0127 14.1952L10.0248 14.1806C10.0995 14.1024 10.1893 14.0402 10.2888 13.9977C10.3882 13.9551 10.4953 13.9332 10.6034 13.9332C10.7116 13.9332 10.8186 13.9551 10.9181 13.9977C11.0175 14.0402 11.1073 14.1024 11.182 14.1806L12.4764 15.52L14.9305 12.9785C15.0059 12.8993 15.0966 12.8363 15.1971 12.7932C15.2976 12.7502 15.4058 12.728 15.5151 12.728C15.6245 12.728 15.7327 12.7502 15.8332 12.7932C15.9337 12.8363 16.0244 12.8993 16.0998 12.9785V12.9797Z" fill="url(#paint6_linear_813_65492)"/>
</g>
<defs>
<linearGradient id="paint0_linear_813_65492" x1="14.5" y1="0" x2="14.5" y2="31" gradientUnits="userSpaceOnUse">
<stop stop-color="#F0E1CA"/>
<stop offset="0.110866" stop-color="#FAF2DF"/>
<stop offset="1" stop-color="#F0D181"/>
</linearGradient>
<radialGradient id="paint1_radial_813_65492" cx="0" cy="0" r="1" gradientUnits="userSpaceOnUse" gradientTransform="translate(5.5 30) rotate(-54.4623) scale(21.5058 47.492)">
<stop stop-color="#FACE77"/>
<stop offset="1" stop-color="#F3E09E" stop-opacity="0"/>
</radialGradient>
<linearGradient id="paint2_linear_813_65492" x1="14.5" y1="0" x2="14.5" y2="31" gradientUnits="userSpaceOnUse">
<stop stop-color="#666666" stop-opacity="0"/>
<stop offset="1" stop-opacity="0.12"/>
</linearGradient>
<linearGradient id="paint3_linear_813_65492" x1="29" y1="0" x2="29" y2="6" gradientUnits="userSpaceOnUse">
<stop stop-color="#C6AD8E"/>
<stop offset="1" stop-color="#C4A288"/>
</linearGradient>
<linearGradient id="paint4_linear_813_65492" x1="18.5" y1="24.3594" x2="26" y2="18.8594" gradientUnits="userSpaceOnUse">
<stop stop-color="#7F5B1D"/>
<stop offset="1" stop-color="#D49C2A"/>
</linearGradient>
<linearGradient id="paint5_linear_813_65492" x1="7.854" y1="24.3594" x2="0.354004" y2="18.8594" gradientUnits="userSpaceOnUse">
<stop stop-color="#7F5B1D"/>
<stop offset="1" stop-color="#D49C2A"/>
</linearGradient>
<linearGradient id="paint6_linear_813_65492" x1="12.9998" y1="8" x2="12.9998" y2="25" gradientUnits="userSpaceOnUse">
<stop stop-color="#764618"/>
<stop offset="1" stop-color="#9C6127"/>
</linearGradient>
<clipPath id="clip0_813_65492">
<rect width="17" height="17" fill="white" transform="translate(4.5 8)"/>
</clipPath>
</defs>
</svg>
