<svg width="17" height="17" viewBox="0 0 17 17" fill="none" xmlns="http://www.w3.org/2000/svg">
<g filter="url(#filter0_i_856_80449)">
<path d="M14.1471 7.41372C16.1236 7.41372 16.5 6.22039 16.5 6.22039C12.5724 6.98217 12.14 5.11684 12.14 5.11684H5.17422C4.19156 6.48261 2.63333 6.85017 0.5 6.22039C0.5 6.22039 0.876444 7.41372 2.85289 7.41372H3.7V8.5435H2.1L1.15867 16.4999H6.80578V13.8608C6.80578 13.424 6.97931 13.005 7.28821 12.6962C7.5971 12.3873 8.01605 12.2137 8.45289 12.2137C8.88973 12.2137 9.30868 12.3873 9.61757 12.6962C9.92647 13.005 10.1 13.424 10.1 13.8608V16.4999H15.7471L14.8058 8.5435H13.2058V7.41372H14.1471ZM10.1 8.5435H6.9V7.41372H10.1942V8.5435H10.1ZM8.44356 0.523947C7.62756 4.2955 5.14756 3.9835 4.02889 3.20217C4.80267 4.20617 5.57022 4.69995 6.35422 4.68439H10.8436C11.6698 4.64439 12.3867 4.07817 12.9231 3.20217C12.052 3.90172 9.21644 4.49506 8.50133 0.524391C8.49556 0.492391 8.45022 0.491503 8.44311 0.523947" fill="#BFC4CB"/>
</g>
<defs>
<filter id="filter0_i_856_80449" x="-0.297883" y="0.5" width="16.7979" height="17.5958" filterUnits="userSpaceOnUse" color-interpolation-filters="sRGB">
<feFlood flood-opacity="0" result="BackgroundImageFix"/>
<feBlend mode="normal" in="SourceGraphic" in2="BackgroundImageFix" result="shape"/>
<feColorMatrix in="SourceAlpha" type="matrix" values="0 0 0 0 0 0 0 0 0 0 0 0 0 0 0 0 0 0 127 0" result="hardAlpha"/>
<feOffset dx="-0.797883" dy="1.59577"/>
<feGaussianBlur stdDeviation="1.59577"/>
<feComposite in2="hardAlpha" operator="arithmetic" k2="-1" k3="1"/>
<feColorMatrix type="matrix" values="0 0 0 0 0 0 0 0 0 0 0 0 0 0 0 0 0 0 0.16 0"/>
<feBlend mode="normal" in2="shape" result="effect1_innerShadow_856_80449"/>
</filter>
</defs>
</svg>
