<svg width="17" height="17" viewBox="0 0 17 17" fill="none" xmlns="http://www.w3.org/2000/svg">
<g clip-path="url(#clip0_856_62063)">
<g filter="url(#filter0_i_856_62063)">
<path fill-rule="evenodd" clip-rule="evenodd" d="M4.69611 4.93776C4.69611 2.98991 6.27524 1.41113 8.22308 1.41113C10.1708 1.41113 11.7497 2.98991 11.749 4.93776C11.7502 5.66681 11.5244 6.37815 11.1029 6.97303L8.22308 10.8535L5.34237 6.97303C4.92085 6.37817 4.69498 5.66683 4.69611 4.93776ZM7.2263 6.11621C7.52136 6.31333 7.86824 6.41852 8.22308 6.41849V6.41832C8.69884 6.41827 9.15511 6.22926 9.49152 5.89284C9.82793 5.55643 10.017 5.10017 10.017 4.6244C10.017 4.26956 9.91177 3.92269 9.71463 3.62765C9.51748 3.33261 9.23728 3.10266 8.90944 2.96687C8.5816 2.83109 8.22086 2.79557 7.87284 2.86481C7.52482 2.93405 7.20514 3.10493 6.95424 3.35586C6.70334 3.60678 6.53249 3.92647 6.46328 4.2745C6.39407 4.62253 6.42963 4.98327 6.56544 5.31109C6.70126 5.63891 6.93124 5.9191 7.2263 6.11621ZM2.73112 6.0052C2.87954 6.05442 3.00793 6.15056 3.09693 6.27912L5.63464 9.54108V14.7032L2.18018 15.8665C2.0713 15.9032 1.95526 15.9134 1.84163 15.8964C1.72801 15.8794 1.62006 15.8356 1.52672 15.7686C1.43338 15.7016 1.35733 15.6133 1.30484 15.5111C1.25235 15.4089 1.22493 15.2957 1.22485 15.1808V6.88321C1.22492 6.73048 1.27293 6.58163 1.36213 6.45765C1.45132 6.33367 1.57719 6.24083 1.72197 6.19221L2.27412 6.00622C2.42231 5.95633 2.58271 5.95598 2.73112 6.0052ZM6.52954 10.6895L8.19335 12.8276L10.4684 9.77496V16.0662L6.52954 14.7398V10.6895ZM13.9238 5.35386L14.7863 5.0633C14.8952 5.02661 15.0113 5.01636 15.1249 5.03339C15.2385 5.05041 15.3465 5.09423 15.4398 5.16122C15.5332 5.22821 15.6093 5.31645 15.6618 5.41865C15.7143 5.52085 15.7417 5.63408 15.7418 5.74898V13.8621C15.7418 14.1731 15.5433 14.6385 15.2488 14.7377L11.2719 16.0769V8.72295C11.2719 8.7189 11.2714 8.71502 11.2709 8.71117C11.2705 8.70735 11.27 8.70356 11.27 8.69964L13.5585 5.62899C13.6473 5.50024 13.7755 5.40372 13.9238 5.35386Z" fill="#BFC4CB"/>
</g>
</g>
<defs>
<filter id="filter0_i_856_62063" x="0.42697" y="1.41113" width="15.3149" height="16.2615" filterUnits="userSpaceOnUse" color-interpolation-filters="sRGB">
<feFlood flood-opacity="0" result="BackgroundImageFix"/>
<feBlend mode="normal" in="SourceGraphic" in2="BackgroundImageFix" result="shape"/>
<feColorMatrix in="SourceAlpha" type="matrix" values="0 0 0 0 0 0 0 0 0 0 0 0 0 0 0 0 0 0 127 0" result="hardAlpha"/>
<feOffset dx="-0.797883" dy="1.59577"/>
<feGaussianBlur stdDeviation="1.59577"/>
<feComposite in2="hardAlpha" operator="arithmetic" k2="-1" k3="1"/>
<feColorMatrix type="matrix" values="0 0 0 0 0 0 0 0 0 0 0 0 0 0 0 0 0 0 0.16 0"/>
<feBlend mode="normal" in2="shape" result="effect1_innerShadow_856_62063"/>
</filter>
<clipPath id="clip0_856_62063">
<rect width="16" height="16" fill="white" transform="translate(0.5 0.5)"/>
</clipPath>
</defs>
</svg>
