<svg width="17" height="16" viewBox="0 0 17 16" fill="none" xmlns="http://www.w3.org/2000/svg">
<g filter="url(#filter0_i_856_80442)">
<path fill-rule="evenodd" clip-rule="evenodd" d="M4.69611 4.43776C4.69611 2.48991 6.27524 0.911133 8.22308 0.911133C10.1708 0.911133 11.7497 2.48991 11.749 4.43776C11.7502 5.16681 11.5244 5.87815 11.1029 6.47303L8.22308 10.3535L5.34237 6.47303C4.92085 5.87817 4.69498 5.16683 4.69611 4.43776ZM7.2263 5.61621C7.52136 5.81333 7.86824 5.91852 8.22308 5.91849V5.91832C8.69884 5.91827 9.15511 5.72926 9.49152 5.39284C9.82793 5.05643 10.017 4.60017 10.017 4.1244C10.017 3.76956 9.91177 3.42269 9.71463 3.12765C9.51748 2.83261 9.23728 2.60266 8.90944 2.46687C8.5816 2.33109 8.22086 2.29557 7.87284 2.36481C7.52482 2.43405 7.20514 2.60493 6.95424 2.85586C6.70334 3.10678 6.53249 3.42647 6.46328 3.7745C6.39407 4.12253 6.42963 4.48327 6.56544 4.81109C6.70126 5.13891 6.93124 5.4191 7.2263 5.61621ZM2.73112 5.5052C2.87954 5.55442 3.00793 5.65056 3.09693 5.77912L5.63464 9.04108V14.2032L2.18018 15.3665C2.0713 15.4032 1.95526 15.4134 1.84163 15.3964C1.72801 15.3794 1.62006 15.3356 1.52672 15.2686C1.43338 15.2016 1.35733 15.1133 1.30484 15.0111C1.25235 14.9089 1.22493 14.7957 1.22485 14.6808V6.38321C1.22492 6.23048 1.27293 6.08163 1.36213 5.95765C1.45132 5.83367 1.57719 5.74083 1.72197 5.69221L2.27412 5.50622C2.42231 5.45633 2.58271 5.45598 2.73112 5.5052ZM6.52954 10.1895L8.19335 12.3276L10.4684 9.27496V15.5662L6.52954 14.2398V10.1895ZM13.9238 4.85386L14.7863 4.5633C14.8952 4.52661 15.0113 4.51636 15.1249 4.53339C15.2385 4.55041 15.3465 4.59423 15.4398 4.66122C15.5332 4.72821 15.6093 4.81645 15.6618 4.91865C15.7143 5.02085 15.7417 5.13408 15.7418 5.24898V13.3621C15.7418 13.6731 15.5433 14.1385 15.2488 14.2377L11.2719 15.5769V8.22295C11.2719 8.2189 11.2714 8.21502 11.2709 8.21117C11.2705 8.20735 11.27 8.20356 11.27 8.19964L13.5585 5.12899C13.6473 5.00024 13.7755 4.90372 13.9238 4.85386Z" fill="#CE3219"/>
</g>
<defs>
<filter id="filter0_i_856_80442" x="0.497581" y="0.911133" width="15.2442" height="16.1203" filterUnits="userSpaceOnUse" color-interpolation-filters="sRGB">
<feFlood flood-opacity="0" result="BackgroundImageFix"/>
<feBlend mode="normal" in="SourceGraphic" in2="BackgroundImageFix" result="shape"/>
<feColorMatrix in="SourceAlpha" type="matrix" values="0 0 0 0 0 0 0 0 0 0 0 0 0 0 0 0 0 0 127 0" result="hardAlpha"/>
<feOffset dx="-0.727273" dy="1.45455"/>
<feGaussianBlur stdDeviation="1.45455"/>
<feComposite in2="hardAlpha" operator="arithmetic" k2="-1" k3="1"/>
<feColorMatrix type="matrix" values="0 0 0 0 0 0 0 0 0 0 0 0 0 0 0 0 0 0 0.16 0"/>
<feBlend mode="normal" in2="shape" result="effect1_innerShadow_856_80442"/>
</filter>
</defs>
</svg>
